<svg height="512" viewBox="0 0 60 60" width="512" xmlns="http://www.w3.org/2000/svg"><g id="Page-1" fill="none" fill-rule="evenodd"><g id="025---Schedule" fill-rule="nonzero"><g id="Icons" transform="translate(1 1)"><path id="Shape" d="m1 16h56v39c0 1.6568542-1.3431458 3-3 3h-50c-1.65685425 0-3-1.3431458-3-3z" fill="#f5f5f5"/><path id="Shape" d="m54 16v39c0 1.6568542-1.3431458 3-3 3h3c1.6568542 0 3-1.3431458 3-3v-39z" fill="#cfd8dc"/><path id="Shape" d="m9 5h45c2.209139 0 4 1.790861 4 4v6c0 .5522847-.4477153 1-1 1h-56c-.55228475 0-1-.4477153-1-1v-6c0-2.209139 1.790861-4 4-4z" fill="#f44335"/><path id="Shape" d="m54 5h-3c2.209139 0 4 1.790861 4 4v6c0 .5522847-.4477153 1-1 1h3c.5522847 0 1-.4477153 1-1v-6c0-2.209139-1.790861-4-4-4z" fill="#c81e1e"/><g fill="#7f8e94"><rect id="Rectangle-path" height="10" rx="2" width="5" x="4"/><rect id="Rectangle-path" height="10" rx="2" width="5" x="19"/><rect id="Rectangle-path" height="10" rx="2" width="5" x="34"/><rect id="Rectangle-path" height="10" rx="2" width="5" x="49"/></g><path id="Shape" d="m52 0h-1c-.3519842.00213009-.6970854.09772312-1 .277.6169095.35474232.9980058 1.01137125 1 1.723v6c-.0019942.71162875-.3830905 1.36825768-1 1.723.3029146.17927688.6480158.27486991 1 .277h1c1.1045695 0 2-.8954305 2-2v-6c0-1.1045695-.8954305-2-2-2z" fill="#545c60"/><path id="Shape" d="m12 46v8h-4c-1.65685425 0-3-1.3431458-3-3v-2c0-1.6568542 1.34314575-3 3-3z" fill="#e91e63"/><path id="Rectangle-path" d="m12 46h32v8h-32z" fill="#02a9f4"/><path id="Rectangle-path" d="m12 46h5v8h-5z" fill="#7f8e94"/><path id="Shape" d="m44 46 9 4-9 4z" fill="#ffeb3a"/><circle id="Oval" cx="17" cy="31" fill="#02a9f4" r="11"/><path id="Shape" d="m17 20c-.5020055.0039684-1.0031606.0420562-1.5.114 5.44307.7431739 9.5006713 5.3924293 9.5006713 10.886s-4.0576013 10.1428261-9.5006713 10.886c4.0710962.5639443 8.1168227-1.1897596 10.4884456-4.5464339 2.3716229-3.3566742 2.6731269-7.7558191.7816417-11.4046739s-5.6601181-5.9381312-9.7700873-5.9348922z" fill="#0377bc"/></g><g id="Layer_2" fill="#000"><path id="Shape" d="m56 5.1v-2.1c0-1.65685425-1.3431458-3-3-3h-1c-1.6568542 0-3 1.34314575-3 3v2h-8v-2c0-1.65685425-1.3431458-3-3-3h-1c-1.6568542 0-3 1.34314575-3 3v2h-8v-2c0-1.65685425-1.3431458-3-3-3h-1c-1.6568542 0-3 1.34314575-3 3v2h-8v-2c0-1.65685425-1.34314575-3-3-3h-1c-1.65685425 0-3 1.34314575-3 3v2.1c-2.3264168.47843265-3.99700171 2.52489917-4 4.9v6c.002145.7113268.38324874 1.3675874 1 1.722v38.278c0 2.209139 1.790861 4 4 4h50c2.209139 0 4-1.790861 4-4v-38.278c.6167513-.3544126.997855-1.0106732 1-1.722v-6c-.0029983-2.37510083-1.6735832-4.42156735-4-4.9zm-5-2.1c0-.55228475.4477153-1 1-1h1c.5522847 0 1 .44771525 1 1v6c0 .55228475-.4477153 1-1 1h-1c-.5522847 0-1-.44771525-1-1zm-15 0c0-.55228475.4477153-1 1-1h1c.5522847 0 1 .44771525 1 1v6c0 .55228475-.4477153 1-1 1h-1c-.5522847 0-1-.44771525-1-1zm-15 0c0-.55228475.4477153-1 1-1h1c.5522847 0 1 .44771525 1 1v6c0 .55228475-.4477153 1-1 1h-1c-.5522847 0-1-.44771525-1-1zm-15 0c0-.55228475.44771525-1 1-1h1c.55228475 0 1 .44771525 1 1v6c0 .55228475-.44771525 1-1 1h-1c-.55228475 0-1-.44771525-1-1zm-4 7c.00525139-1.26678543.80564913-2.39374545 2-2.816v1.816c0 1.6568542 1.34314575 3 3 3h1c1.65685425 0 3-1.3431458 3-3v-2h8v2c0 1.6568542 1.3431458 3 3 3h1c1.6568542 0 3-1.3431458 3-3v-2h8v2c0 1.6568542 1.3431458 3 3 3h1c1.6568542 0 3-1.3431458 3-3v-2h8v2c0 1.6568542 1.3431458 3 3 3h1c1.6568542 0 3-1.3431458 3-3v-1.816c1.1943509.42225455 1.9947486 1.54921457 2 2.816v6h-56zm55 46c0 1.1045695-.8954305 2-2 2h-50c-1.1045695 0-2-.8954305-2-2v-38h54z"/><path id="Shape" d="m9 56h36c.1378302.0001399.2741367-.0288252.4-.085h.008l9-4c.3613564-.160402.5942858-.5186429.5942858-.914s-.2329294-.753598-.5942858-.914l-9-4h-.01c-.01 0-.022 0-.033-.01-.1033322-.0393764-.21248-.0613411-.323-.065-.014 0-.026-.008-.04-.008h-36.002c-2.209139 0-4 1.790861-4 4v2c.00220758 2.2075767 1.79242216 3.9960011 4 3.996zm37-2.539v-4.922l5.538 2.461zm-2-3.461h-18c-.5522847 0-1 .4477153-1 1s.4477153 1 1 1h18v2h-25v-2h3c.5522847 0 1-.4477153 1-1s-.4477153-1-1-1h-3v-2h25zm-27-2v6h-3v-6zm-10 2c0-1.1045695.8954305-2 2-2h3v6h-3c-1.1045695 0-2-.8954305-2-2z"/><path id="Shape" d="m18 44c6.627417 0 12-5.372583 12-12s-5.372583-12-12-12-12 5.372583-12 12c.02304171 6.6178493 5.3821507 11.9769583 12 12zm-5.834-20.1.314.544c.1773616.3119508.5082732.5049532.8671183.5057421s.6906021-.1907567.8693336-.5019247c.1787314-.3111679.1770325-.694247-.0044519-1.0038174l-.316-.548c.9806864-.446971 2.0278134-.7307086 3.1-.84v.641c0 .5522847.4477153 1 1 1s1-.4477153 1-1v-.641c1.0721866.1092914 2.1193136.393029 3.1.84l-.316.548c-.1814844.3095704-.1831833.6926495-.0044519 1.0038174.1787315.311168.5104885.5027136.8693336.5019247s.6897567-.1937913.8671183-.5057421l.314-.544c.8736196.6306308 1.6403692 1.3973804 2.271 2.271l-.544.314c-.3119508.1773616-.5049532.5082732-.5057421.8671183s.1907567.6906021.5019247.8693336c.3111679.1787314.694247.1770325 1.0038174-.0044519l.548-.316c.446971.9806864.7307086 2.0278134.84 3.1h-.641c-.5522847 0-1 .4477153-1 1s.4477153 1 1 1h.641c-.1092914 1.0721866-.393029 2.1193136-.84 3.1l-.548-.316c-.3095704-.1814844-.6926495-.1831833-1.0038174-.0044519-.311168.1787315-.5027136.5104885-.5019247.8693336s.1937913.6897567.5057421.8671183l.544.314c-.6283805.8722811-1.3923859 1.638312-2.263 2.269l-.314-.544c-.1773616-.3119508-.5082732-.5049532-.8671183-.5057421s-.6906021.1907567-.8693336.5019247c-.1787314.3111679-.1770325.694247.0044519 1.0038174l.316.548c-.9806864.446971-2.0278134.7307086-3.1.84v-.641c0-.5522847-.4477153-1-1-1s-1 .4477153-1 1v.641c-1.0721866-.1092914-2.1193136-.393029-3.1-.84l.316-.548c.1814844-.3095704.1831833-.6926495.0044519-1.0038174-.1787315-.311168-.5104885-.5027136-.8693336-.5019247s-.6897567.1937913-.8671183.5057421l-.314.544c-.8742961-.6288728-1.6420499-1.3939256-2.274-2.266l.544-.314c.3119508-.1773616.5049532-.5082732.5057421-.8671183s-.1907567-.6906021-.5019247-.8693336c-.3111679-.1787314-.69424698-.1770325-1.0038174.0044519l-.548.316c-.44697097-.9806864-.7307086-2.0278134-.84-3.1h.641c.55228475 0 1-.4477153 1-1s-.44771525-1-1-1h-.646c.1092914-1.0721866.39302903-2.1193136.84-3.1l.548.316c.30957042.1814844.6926495.1831833 1.0038174.0044519.311168-.1787315.5027136-.5104885.5019247-.8693336s-.1937913-.6897567-.5057421-.8671183l-.539-.322c.6295344-.8714475 1.3945525-1.6364656 2.266-2.266z"/><path id="Shape" d="m19.168 35.555c.1982824.297245.5400812.4661283.8966441.4430332s.6737195-.2346599.832-.555.1336383-.7007882-.0646441-.9980332l-1.832-2.745v-5.7c0-.5522847-.4477153-1-1-1s-1 .4477153-1 1v6c.0003124.1974794.0587401.3904993.168.555z"/><path id="Shape" d="m33 23h19c.5522847 0 1-.4477153 1-1s-.4477153-1-1-1h-19c-.5522847 0-1 .4477153-1 1s.4477153 1 1 1z"/><path id="Shape" d="m33 28h19c.5522847 0 1-.4477153 1-1s-.4477153-1-1-1h-19c-.5522847 0-1 .4477153-1 1s.4477153 1 1 1z"/><path id="Shape" d="m33 33h19c.5522847 0 1-.4477153 1-1s-.4477153-1-1-1h-19c-.5522847 0-1 .4477153-1 1s.4477153 1 1 1z"/><path id="Shape" d="m33 38h19c.5522847 0 1-.4477153 1-1s-.4477153-1-1-1h-19c-.5522847 0-1 .4477153-1 1s.4477153 1 1 1z"/><path id="Shape" d="m33 43h10c.5522847 0 1-.4477153 1-1s-.4477153-1-1-1h-10c-.5522847 0-1 .4477153-1 1s.4477153 1 1 1z"/></g></g></g></svg>