<?xml version="1.0" encoding="iso-8859-1"?>
<!-- Generator: Adobe Illustrator 19.0.0, SVG Export Plug-In . SVG Version: 6.00 Build 0)  -->
<svg version="1.1" id="Layer_1" xmlns="http://www.w3.org/2000/svg" xmlns:xlink="http://www.w3.org/1999/xlink" x="0px" y="0px"
	 viewBox="0 0 512 512" style="enable-background:new 0 0 512 512;" xml:space="preserve">
<path style="fill:#7AB6DE;" d="M157.989,200.153h-22.505h-16.699v218.112C118.784,470.039,180.213,512,256,512
	c54.126,0,120.517-41.961,120.517-93.735V200.153H157.989z"/>
<path style="fill:#4693BD;" d="M393.216,200.153v218.112C393.216,470.039,331.787,512,256,512c54.126,0,98.011-41.961,98.011-93.735
	V200.153H393.216z"/>
<ellipse style="fill:#ADD9FF;" cx="256" cy="200.153" rx="137.216" ry="93.735"/>
<path style="fill:#4693BD;" d="M318.119,208.594H193.881c-4.662,0-8.44-3.779-8.44-8.44c0-4.661,3.778-8.44,8.44-8.44h124.237
	c4.662,0,8.44,3.779,8.44,8.44C326.558,204.816,322.781,208.594,318.119,208.594z"/>
<path style="fill:#94C8EF;" d="M186.583,325.363c-0.866,0-1.746-0.134-2.614-0.416c-12.603-4.102-24.566-9.305-35.555-15.466
	c-4.066-2.279-5.514-7.422-3.235-11.488c2.279-4.066,7.425-5.513,11.488-3.235c10.028,5.621,20.972,10.377,32.526,14.138
	c4.431,1.443,6.856,6.205,5.414,10.637C193.446,323.097,190.139,325.363,186.583,325.363z"/>
<path style="fill:#4693BD;" d="M256,336.086c-12.773,0-25.53-1-37.918-2.972c-4.604-0.733-7.741-5.058-7.009-9.662
	c0.733-4.602,5.058-7.74,9.662-7.008c11.514,1.833,23.379,2.763,35.266,2.763c36.452,0,70.799-8.454,99.329-24.449
	c4.068-2.28,9.212-0.83,11.489,3.235c2.279,4.066,0.83,9.209-3.235,11.488C332.538,326.887,295.335,336.086,256,336.086z"/>
<circle style="fill:#FFBB02;" cx="256" cy="83.216" r="83.216"/>
<path style="fill:#FFDD77;" d="M299.694,65.725c0-12.878-10.439-23.317-23.317-23.317c-8.767,0-16.396,4.841-20.378,11.993
	c-3.981-7.152-11.612-11.993-20.378-11.993c-12.878,0-23.317,10.439-23.317,23.317c0,5.279,1.755,10.147,4.713,14.055l38.983,51.525
	l38.983-51.525C297.94,75.872,299.694,71.004,299.694,65.725z"/>
<g>
</g>
<g>
</g>
<g>
</g>
<g>
</g>
<g>
</g>
<g>
</g>
<g>
</g>
<g>
</g>
<g>
</g>
<g>
</g>
<g>
</g>
<g>
</g>
<g>
</g>
<g>
</g>
<g>
</g>
</svg>
