<?xml version="1.0" encoding="iso-8859-1"?>
<!-- Generator: Adobe Illustrator 19.0.0, SVG Export Plug-In . SVG Version: 6.00 Build 0)  -->
<svg version="1.1" id="Capa_1" xmlns="http://www.w3.org/2000/svg" xmlns:xlink="http://www.w3.org/1999/xlink" x="0px" y="0px"
	 viewBox="0 0 512.001 512.001" style="enable-background:new 0 0 512.001 512.001;" xml:space="preserve">
<path style="fill:#475D6D;" d="M365.275,22.135h51.247c12.702,0,24.19,7.546,29.235,19.204l3.275,7.569h15.466
	C490.733,48.908,512,70.175,512,96.41v174.683c0,18.635-15.107,33.742-33.742,33.742H307.826c-18.635,0-33.742-15.107-33.742-33.742
	V113.327C274.084,62.963,314.911,22.135,365.275,22.135z"/>
<path style="fill:#2C3F4F;" d="M464.498,48.908h-15.465l-3.275-7.569c-5.044-11.658-16.532-19.204-29.235-19.204h-26.544
	c12.702,0,24.19,7.546,29.235,19.204l3.275,7.569h15.466c26.235,0,47.502,21.267,47.502,47.502v174.683
	c0,18.635-15.107,33.742-33.742,33.742h26.544c18.635,0,33.742-15.107,33.742-33.742V96.411
	C512,70.176,490.733,48.908,464.498,48.908z"/>
<path style="fill:#F9DC6A;" d="M205.84,49.221l-97.19-23.119c-10.36-2.465-21.258,0.621-28.788,8.151L52.225,61.89H40.512
	c-16.941,0-30.674,13.733-30.674,30.674c0,0-1.547,37.634,0,50.051c1.838,14.753,14.592,57.649,14.592,57.649h207.289
	l38.844-153.726c1.991-7.886-7.168-13.794-13.532-8.729l0,0C242.626,49.273,223.751,53.481,205.84,49.221z"/>
<path style="fill:#E5AC51;" d="M257.031,37.808L257.031,37.808c-4.044,3.219-8.449,5.843-13.077,7.891
	c-0.043,0.279-0.07,0.554-0.142,0.838l-38.844,153.726h26.751l38.844-153.726C272.553,38.652,263.394,32.743,257.031,37.808z"/>
<path style="fill:#2BB4F3;" d="M505.4,386.451v103.41H317.8v-96.59H39.02v-62.07h411.13C480.66,331.201,505.4,355.93,505.4,386.451z
	"/>
<g>
	<path style="fill:#1687C4;" d="M450.148,331.199h-23.651c30.514,0,55.25,24.736,55.25,55.25v103.416h23.651V386.448
		C505.398,355.935,480.662,331.199,450.148,331.199z"/>
	<path style="fill:#1687C4;" d="M270.829,393.273v-6.824c0-30.513-24.734-55.248-55.247-55.25H101.364
		c-30.512,0.001-55.247,24.737-55.247,55.25v6.824H270.829z"/>
</g>
<path style="fill:#F2A077;" d="M359.754,275.685v67.098c0,18.385,33.288,36.936,33.288,36.936s33.288-18.552,33.288-36.936v-67.098
	H359.754z"/>
<path style="fill:#FFCCAA;" d="M509.355,195.566v9.801c0,11.442-9.265,20.72-20.708,20.72h-7.028
	c-2.808,54.051-52.94,91.589-102.128,83.026h-0.012c-41.051-6.299-72.824-40.747-75.013-83.026h-7.028
	c-11.442,0-20.72-9.278-20.72-20.72v-9.801c0-11.442,9.278-20.72,20.72-20.72h6.894V129.88c0-1.204,0.024-2.395,0.085-3.575
	c12.16,2.347,24.72,3.563,37.561,3.563c39.13,0,75.608-11.333,106.336-30.91c6.736-4.28,13.205-8.962,19.358-14.02
	c8.663,12.243,14.068,28.143,14.068,44.942v44.966h6.907C500.09,174.846,509.355,184.124,509.355,195.566z"/>
<path style="fill:#F2A077;" d="M488.648,174.846h-6.907v-18.357h-0.009c-0.004-30.478-0.007-28.09-0.015-28.518
	c-0.395-16.163-5.754-31.318-14.044-43.033c-6.153,5.058-12.622,9.74-19.358,14.02c4.049,9.497,6.299,19.942,6.299,30.922v44.966
	l-0.134,51.241c-1.216,23.407-11.491,44.431-27.408,59.594c-12.816,12.22-29.28,20.611-47.58,23.432
	c44.883,7.814,90.543-22.759,100.328-69.233l0,0c0.001-0.003,0.001-0.006,0.002-0.009c0.465-2.209,0.851-4.452,1.15-6.73
	c0.009-0.069,0.016-0.139,0.025-0.208c0.124-0.965,0.231-1.937,0.325-2.913c0.023-0.245,0.047-0.489,0.069-0.735
	c0.093-1.06,0.174-2.124,0.229-3.198h0.121h6.907c11.442,0,20.708-9.278,20.708-20.72v-9.801
	C509.355,184.124,500.09,174.846,488.648,174.846z"/>
<g>
	<path style="fill:#475D6D;" d="M393.042,258.579c-11.585,0-22.49-4.514-30.707-12.709c-4.155-4.155-7.361-8.993-9.536-14.385
		c-1.55-3.841,0.308-8.211,4.149-9.761c3.841-1.55,8.212,0.308,9.761,4.15c1.417,3.512,3.512,6.669,6.226,9.384
		c5.378,5.364,12.521,8.322,20.107,8.322c11.634,0,21.972-6.955,26.338-17.719c1.558-3.838,5.928-5.688,9.77-4.131
		c3.838,1.557,5.688,5.931,4.131,9.769C426.607,247.949,410.813,258.579,393.042,258.579z"/>
	<path style="fill:#475D6D;" d="M348.637,188.095c-4.143,0-7.5-3.358-7.5-7.5v-4.285c0-4.142,3.357-7.5,7.5-7.5s7.5,3.358,7.5,7.5
		v4.285C356.137,184.737,352.779,188.095,348.637,188.095z"/>
	<path style="fill:#475D6D;" d="M437.447,188.095c-4.143,0-7.5-3.358-7.5-7.5v-4.285c0-4.142,3.357-7.5,7.5-7.5s7.5,3.358,7.5,7.5
		v4.285C444.947,184.737,441.59,188.095,437.447,188.095z"/>
</g>
<path style="fill:#FF5A59;" d="M240.43,386.451v103.41H15.72v-103.41c0-30.52,24.73-55.25,55.25-55.25h114.21
	C215.69,331.201,240.43,355.93,240.43,386.451z"/>
<path style="fill:#CE3A4C;" d="M185.18,331.199h-23.651c30.514,0,55.25,24.736,55.25,55.25v103.416h23.651V386.448
	C240.43,355.935,215.694,331.199,185.18,331.199z"/>
<path style="fill:#F2A077;" d="M94.786,275.685v67.098c0,18.385,14.904,33.288,33.288,33.288l0,0
	c18.385,0,33.288-14.904,33.288-33.288v-67.098H94.786z"/>
<path style="fill:#FFCCAA;" d="M244.398,195.566v9.801c0,11.442-9.278,20.72-20.72,20.72h-7.028
	c-0.928,17.153-6.838,33.287-15.187,45.173c0,0.012-0.012,0.012-0.012,0.024c-16.693,25.675-51.065,43.249-86.929,37.828h-0.012
	c-41.051-6.299-72.824-40.747-75.013-83.026h-7.028c-11.442,0-20.708-9.278-20.708-20.72v-9.801c0-11.442,9.266-20.72,20.708-20.72
	h6.907v-32.612c23.796-1.605,31.493-8.901,31.493-32.357c0,0,30.277,53.928,118.775,37.853c8.5-1.544,17.534-3.733,27.14-6.676
	v33.791h6.894C235.12,174.846,244.398,184.124,244.398,195.566z"/>
<path style="fill:#F2A077;" d="M223.678,174.846h-6.894v-6.197v-27.594c-9.606,2.943-18.641,5.131-27.14,6.676v27.116l-0.134,51.241
	c-1.216,23.407-11.491,44.431-27.408,59.594c-12.816,12.22-29.268,20.611-47.58,23.432c35.853,5.419,70.297-12.248,86.929-37.828
	c0-0.012,0.012-0.012,0.012-0.024c5.357-6.82,11.086-19.637,13.756-33.706h0.049c0.475-2.569,0.841-5.181,1.097-7.822
	c0.01-0.105,0.023-0.209,0.033-0.315c0.103-1.105,0.191-2.214,0.252-3.33h0.134h6.894c11.442,0,20.72-9.278,20.72-20.72v-9.801
	C244.398,184.124,235.12,174.846,223.678,174.846z"/>
<g>
	<path style="fill:#475D6D;" d="M128.074,258.579c-11.586,0-22.491-4.514-30.708-12.709c-4.153-4.154-7.359-8.991-9.536-14.384
		c-1.55-3.841,0.307-8.212,4.148-9.762c3.841-1.553,8.211,0.308,9.762,4.148c1.418,3.513,3.513,6.671,6.227,9.385
		c5.378,5.364,12.521,8.322,20.107,8.322c11.634,0,21.972-6.955,26.338-17.719c1.558-3.838,5.928-5.688,9.77-4.131
		c3.838,1.557,5.688,5.931,4.131,9.769C161.64,247.949,145.845,258.579,128.074,258.579z"/>
	<path style="fill:#475D6D;" d="M83.669,188.095c-4.143,0-7.5-3.358-7.5-7.5v-4.285c0-4.142,3.357-7.5,7.5-7.5s7.5,3.358,7.5,7.5
		v4.285C91.169,184.737,87.812,188.095,83.669,188.095z"/>
	<path style="fill:#475D6D;" d="M172.479,188.095c-4.143,0-7.5-3.358-7.5-7.5v-4.285c0-4.142,3.357-7.5,7.5-7.5s7.5,3.358,7.5,7.5
		v4.285C179.979,184.737,176.622,188.095,172.479,188.095z"/>
</g>
<path style="fill:#FFCCAA;" d="M38.075,402.245H19.259C8.623,402.245,0,393.622,0,382.985v-42.035
	c0-10.637,8.623-19.259,19.259-19.259h18.816c7.814,0,14.149,6.335,14.149,14.149v52.255
	C52.225,395.91,45.89,402.245,38.075,402.245z"/>
<g>
	<path style="fill:#CE3A4C;" d="M210.82,430.37v59.49h-15v-59.49c0-4.14,3.36-7.5,7.5-7.5S210.82,426.23,210.82,430.37z"/>
	<path style="fill:#CE3A4C;" d="M60.33,430.37v59.49h-15v-59.49c0-4.14,3.36-7.5,7.5-7.5S60.33,426.23,60.33,430.37z"/>
</g>
<path style="fill:#1687C4;" d="M475.79,430.37v59.49h-15v-59.49c0-4.14,3.35-7.5,7.5-7.5C472.43,422.87,475.79,426.23,475.79,430.37
	z"/>
<g>
</g>
<g>
</g>
<g>
</g>
<g>
</g>
<g>
</g>
<g>
</g>
<g>
</g>
<g>
</g>
<g>
</g>
<g>
</g>
<g>
</g>
<g>
</g>
<g>
</g>
<g>
</g>
<g>
</g>
</svg>
