<svg height="512pt" viewBox="0 0 512 511" width="512pt" xmlns="http://www.w3.org/2000/svg"><path d="m256 .5c-140.699219 0-256 108.699219-256 241 0 71.101562 33.699219 137.398438 91 183v73c0 5.097656 2.699219 9.699219 7.199219 12.699219 4.199219 2.699219 9.902343 3 14.398437.601562l74.703125-38c22.199219 5.699219 45.296875 8.699219 68.699219 8.699219 140.699219 0 256-107.699219 256-240s-115.300781-241-256-241zm0 0" fill="#0095ff"/><path d="m512 241.5c0 132.300781-115.300781 240-256 240v-481c140.699219 0 256 108.699219 256 241zm0 0" fill="#006eff"/><path d="m417.699219 157.199219c-4.5-5.699219-12-7.199219-18.300781-4.199219l-110.402344 55.199219-32.996094-32.699219-19.5-19.503906c-3-2.996094-6.898438-4.796875-11.402344-4.496094-4.199218.300781-8.097656 2.398438-10.796875 5.699219l-120 150c-4.5 5.398437-4.5 13.199219 0 18.601562 4.5 5.699219 12 7.199219 18.296875 4.199219l110.402344-55.203125 33 32.703125 19.5 19.5c3 3 6.898438 4.800781 11.402344 4.5 4.199218-.300781 8.097656-2.402344 10.796875-5.699219l120-150c4.5-5.402343 4.5-13.199219 0-18.601562zm0 0" fill="#edf5ff"/><path d="m417.699219 175.800781-120 150c-2.699219 3.300781-6.601563 5.398438-10.800781 5.699219-4.5.300781-8.398438-1.5-11.398438-4.5l-19.5-19.5v-132l33 32.699219 110.402344-55.199219c6.296875-3 13.796875-1.5 18.296875 4.199219 4.5 5.402343 4.5 13.199219 0 18.601562zm0 0" fill="#d7e9ff"/></svg>