<svg height="512pt" viewBox="0 0 512 512" width="512pt" xmlns="http://www.w3.org/2000/svg"><path d="m456.832031 0h-401.667969c-30.417968 0-55.164062 24.746094-55.164062 55.167969v88.367187c0 8.28125 6.714844 15 15 15h482c8.285156 0 15-6.71875 15-15v-88.367187c0-30.421875-24.75-55.167969-55.167969-55.167969zm0 0" fill="#0065a3"/><path d="m456.832031 0h-200.832031v158.535156h241c8.285156 0 15-6.71875 15-15v-88.367187c0-30.421875-24.75-55.167969-55.167969-55.167969zm0 0" fill="#005183"/><path d="m368.464844 94.265625h-224.933594c-8.28125 0-15-6.714844-15-15 0-8.28125 6.71875-15 15-15h224.933594c8.285156 0 15 6.71875 15 15 0 8.285156-6.714844 15-15 15zm0 0" fill="#e7f0ef"/><path d="m0 143.535156v313.296875c0 30.421875 24.746094 55.167969 55.164062 55.167969h401.667969c30.417969 0 55.167969-24.746094 55.167969-55.167969v-313.296875zm0 0" fill="#e7f0ef"/><path d="m256 143.535156v368.464844h200.832031c30.417969 0 55.167969-24.746094 55.167969-55.167969v-313.296875zm0 0" fill="#c5e1e6"/><path d="m143.53125 208.867188h-64.265625c-8.28125 0-15 6.714843-15 15v64.265624c0 8.285157 6.71875 15 15 15h64.269531c8.28125 0 15-6.714843 15-15v-64.265624c-.003906-8.285157-6.71875-15-15.003906-15zm0 0" fill="#0065a3"/><g fill="#265c76"><path d="m432.730469 303.132812h-224.929688c-8.285156 0-15-6.714843-15-15 0-8.28125 6.714844-15 15-15h224.933594c8.28125 0 15 6.71875 15 15-.003906 8.285157-6.71875 15-15.003906 15zm0 0"/><path d="m432.730469 367.398438h-353.464844c-8.28125 0-15-6.714844-15-15 0-8.285157 6.71875-15 15-15h353.46875c8.28125 0 15 6.714843 15 15-.003906 8.285156-6.71875 15-15.003906 15zm0 0"/><path d="m432.730469 431.667969h-353.464844c-8.28125 0-15-6.71875-15-15 0-8.285157 6.71875-15 15-15h353.46875c8.28125 0 15 6.714843 15 15-.003906 8.28125-6.71875 15-15.003906 15zm0 0"/><path d="m432.730469 238.867188h-224.929688c-8.285156 0-15-6.71875-15-15 0-8.285157 6.714844-15 15-15h224.933594c8.28125 0 15 6.714843 15 15-.003906 8.28125-6.71875 15-15.003906 15zm0 0"/></g><path d="m383.464844 79.265625c0-8.28125-6.714844-15-15-15h-112.464844v30h112.464844c8.285156 0 15-6.714844 15-15zm0 0" fill="#c5e1e6"/><path d="m447.730469 288.132812c0-8.28125-6.714844-15-15-15h-176.730469v30h176.730469c8.285156 0 15-6.714843 15-15zm0 0" fill="#1d4659"/><path d="m432.730469 367.398438c8.285156 0 15-6.714844 15-15 0-8.285157-6.714844-15-15-15h-176.730469v30zm0 0" fill="#1d4659"/><path d="m432.730469 431.667969c8.285156 0 15-6.71875 15-15 0-8.285157-6.714844-15-15-15h-176.730469v30zm0 0" fill="#1d4659"/><path d="m447.730469 223.867188c0-8.285157-6.714844-15-15-15h-176.730469v30h176.730469c8.285156 0 15-6.71875 15-15zm0 0" fill="#1d4659"/></svg>