<svg viewBox="0 -22 512.001 512" xmlns="http://www.w3.org/2000/svg"><path d="m315.898438 173.972656c-21.898438 0-42.71875 7.011719-59.898438 19.972656-17.179688-12.960937-37.996094-19.972656-59.894531-19.972656-26.632813 0-51.671875 10.371094-70.503907 29.203125-38.871093 38.878907-38.871093 102.132813 0 141.003907l119.792969 119.792968c2.929688 2.929688 6.765625 4.394532 10.605469 4.394532s7.679688-1.464844 10.605469-4.394532l119.789062-119.792968c18.835938-18.832032 29.207031-43.867188 29.207031-70.503907 0-26.632812-10.371093-51.667969-29.203124-70.496093-18.832032-18.835938-43.867188-29.207032-70.5-29.207032zm0 0" fill="#ff5b5b"/><path d="m186.378906 158.53125c17.453125 0 34.25-9.046875 46.082032-24.820312 11.035156-14.71875 17.113281-34.054688 17.113281-54.445313s-6.078125-39.722656-17.113281-54.441406c-11.832032-15.777344-28.632813-24.824219-46.082032-24.824219-17.457031 0-34.25 9.046875-46.082031 24.824219-11.039063 14.71875-17.121094 34.054687-17.121094 54.441406 0 20.390625 6.082031 39.726563 17.121094 54.445313 11.828125 15.773437 28.625 24.820312 46.082031 24.820312zm0 0" fill="#ff5b5b"/><path d="m325.621094 158.53125c17.457031 0 34.25-9.046875 46.082031-24.820312 11.039063-14.71875 17.117187-34.054688 17.117187-54.445313s-6.078124-39.722656-17.117187-54.441406c-11.832031-15.777344-28.628906-24.824219-46.082031-24.824219s-34.25 9.046875-46.082032 24.824219c-11.035156 14.71875-17.113281 34.054687-17.113281 54.441406 0 20.390625 6.078125 39.726563 17.113281 54.445313 11.832032 15.773437 28.628907 24.820312 46.082032 24.820312zm0 0" fill="#ff3980"/><path d="m497.238281 91.308594c-10.335937-13.785156-25.0625-21.6875-40.402343-21.6875-15.339844 0-30.066407 7.902344-40.402344 21.683594-9.523438 12.695312-14.765625 29.34375-14.765625 46.871093 0 17.527344 5.242187 34.175781 14.765625 46.867188 10.335937 13.785156 25.0625 21.6875 40.402344 21.6875 15.339843 0 30.066406-7.902344 40.402343-21.6875 9.519531-12.691407 14.761719-29.335938 14.761719-46.867188 0-17.527343-5.242188-34.171875-14.761719-46.867187zm0 0" fill="#ff3980"/><path d="m95.570312 91.304688c-10.335937-13.78125-25.0625-21.683594-40.40625-21.683594-15.335937 0-30.0625 7.902344-40.398437 21.6875-9.523437 12.695312-14.765625 29.339844-14.765625 46.867187 0 17.527344 5.242188 34.175781 14.765625 46.867188 10.335937 13.785156 25.0625 21.6875 40.398437 21.6875 15.34375 0 30.070313-7.902344 40.40625-21.6875 9.519532-12.691407 14.765626-29.335938 14.765626-46.867188 0-17.527343-5.246094-34.171875-14.765626-46.871093zm0 0" fill="#ff5b5b"/><path d="m386.398438 203.179688c-18.832032-18.835938-43.867188-29.207032-70.5-29.207032-21.476563 0-41.902344 6.757813-58.886719 19.242188v275.101562c3.496093-.234375 6.921875-1.671875 9.59375-4.34375l119.792969-119.792968c18.832031-18.832032 29.203124-43.867188 29.203124-70.503907 0-26.628906-10.371093-51.667969-29.203124-70.496093zm0 0" fill="#ff3980"/></svg>